<svg width="107" height="41" viewBox="0 0 107 41" fill="none" xmlns="http://www.w3.org/2000/svg">
<path d="M61.5166 23.9139V27.6654H51.4189V23.9139H61.5166ZM53.5344 20.0791H58.6301V34.8869C58.6301 35.1996 58.6787 35.4531 58.776 35.6477C58.8802 35.8352 59.0295 35.9707 59.2241 36.0541C59.4186 36.1305 59.6513 36.1687 59.9223 36.1687C60.1168 36.1687 60.3217 36.1513 60.5371 36.1166C60.7594 36.0749 60.9261 36.0402 61.0373 36.0124L61.8084 39.6909C61.5653 39.7604 61.2214 39.8472 60.7768 39.9514C60.3391 40.0556 59.8146 40.1216 59.2032 40.1494C58.0083 40.205 56.9836 40.0661 56.1291 39.7326C55.2816 39.3922 54.632 38.8642 54.1804 38.1486C53.7358 37.4331 53.5205 36.5334 53.5344 35.4497V20.0791Z" fill="#C848FF"/>
<path d="M49.5783 28.8013L44.8994 28.9263C44.8508 28.5929 44.7188 28.2976 44.5034 28.0406C44.2881 27.7766 44.0067 27.5717 43.6593 27.4258C43.3189 27.2729 42.9229 27.1965 42.4714 27.1965C41.8809 27.1965 41.3772 27.3146 40.9604 27.5508C40.5505 27.787 40.349 28.1066 40.356 28.5095C40.349 28.8221 40.4741 29.0931 40.7311 29.3223C40.9951 29.5516 41.464 29.7357 42.1379 29.8746L45.2224 30.4582C46.8203 30.7639 48.0083 31.271 48.7863 31.9796C49.5714 32.6882 49.9673 33.6261 49.9743 34.7932C49.9673 35.8909 49.6408 36.8461 48.9947 37.6589C48.3556 38.4717 47.4803 39.1039 46.3687 39.5555C45.2572 40.0001 43.9859 40.2224 42.5547 40.2224C40.2691 40.2224 38.4663 39.7535 37.1464 38.8156C35.8334 37.8708 35.0831 36.6064 34.8955 35.0225L39.9287 34.8974C40.0399 35.481 40.3282 35.9256 40.7936 36.2313C41.2591 36.537 41.8531 36.6898 42.5756 36.6898C43.2286 36.6898 43.7601 36.5682 44.17 36.3251C44.5798 36.0819 44.7883 35.7589 44.7952 35.3559C44.7883 34.9947 44.6285 34.7064 44.3158 34.491C44.0032 34.2687 43.5134 34.095 42.8465 33.97L40.0538 33.4385C38.449 33.1467 37.2541 32.6083 36.469 31.8233C35.684 31.0313 35.295 30.024 35.3019 28.8013C35.295 27.7314 35.5798 26.8179 36.1564 26.0606C36.733 25.2965 37.5528 24.7129 38.6157 24.31C39.6786 23.907 40.9326 23.7056 42.3776 23.7056C44.5451 23.7056 46.2541 24.1606 47.5046 25.0707C48.7551 25.9738 49.4463 27.2174 49.5783 28.8013Z" fill="#C848FF"/>
<path d="M22.9216 40.1912C21.9004 40.1912 20.9938 40.0209 20.2018 39.6805C19.4168 39.3332 18.795 38.8121 18.3365 38.1174C17.885 37.4158 17.6592 36.537 17.6592 35.481C17.6592 34.5918 17.8155 33.8415 18.1281 33.2301C18.4407 32.6188 18.8715 32.122 19.4203 31.7399C19.9691 31.3579 20.6013 31.0695 21.3169 30.875C22.0324 30.6736 22.7966 30.5381 23.6094 30.4686C24.5195 30.3853 25.2524 30.2984 25.8082 30.2081C26.364 30.1108 26.7669 29.9754 27.017 29.8017C27.274 29.6211 27.4026 29.3675 27.4026 29.041V28.9889C27.4026 28.4539 27.2185 28.0406 26.8503 27.7488C26.4821 27.457 25.9853 27.3111 25.3601 27.3111C24.6862 27.3111 24.1443 27.457 23.7345 27.7488C23.3246 28.0406 23.0641 28.4435 22.9529 28.9576L18.2532 28.7909C18.3921 27.8183 18.7499 26.9499 19.3265 26.1857C19.9101 25.4146 20.709 24.8102 21.7233 24.3725C22.7445 23.9279 23.9707 23.7056 25.4018 23.7056C26.423 23.7056 27.3643 23.8271 28.2258 24.0703C29.0872 24.3065 29.8375 24.6539 30.4767 25.1124C31.1158 25.5639 31.6091 26.1197 31.9564 26.7797C32.3107 27.4397 32.4879 28.1934 32.4879 29.041V39.9202H27.6943V37.6902H27.5693C27.2845 38.2321 26.9197 38.6906 26.4751 39.0657C26.0374 39.4409 25.5199 39.7222 24.9224 39.9098C24.3319 40.0974 23.665 40.1912 22.9216 40.1912ZM24.4952 36.8565C25.044 36.8565 25.5372 36.7454 25.9749 36.5231C26.4195 36.3008 26.7738 35.9951 27.0378 35.606C27.3018 35.21 27.4338 34.7515 27.4338 34.2305V32.7091C27.2879 32.7855 27.1108 32.855 26.9024 32.9175C26.7009 32.98 26.4786 33.0391 26.2354 33.0946C25.9923 33.1502 25.7422 33.1988 25.4851 33.2405C25.2281 33.2822 24.9815 33.3204 24.7453 33.3552C24.2659 33.4316 23.856 33.5497 23.5156 33.7095C23.1822 33.8692 22.9251 34.0777 22.7445 34.3347C22.5708 34.5848 22.484 34.8835 22.484 35.2309C22.484 35.7589 22.6715 36.1618 23.0467 36.4397C23.4288 36.7176 23.9116 36.8565 24.4952 36.8565Z" fill="#C848FF"/>
<path d="M8.37164 40.2224C6.68348 40.2224 5.235 39.8751 4.0262 39.1803C2.82434 38.4856 1.90037 37.52 1.25428 36.2834C0.608199 35.0398 0.285156 33.6018 0.285156 31.9692C0.285156 30.3297 0.608199 28.8916 1.25428 27.655C1.90732 26.4115 2.83476 25.4424 4.03662 24.7476C5.24542 24.0529 6.68695 23.7056 8.36122 23.7056C9.84096 23.7056 11.1297 23.973 12.2273 24.508C13.3319 25.0429 14.1933 25.8001 14.8116 26.7797C15.4369 27.7523 15.7669 28.8951 15.8016 30.2081H11.0393C10.9421 29.3883 10.6642 28.7457 10.2057 28.2803C9.75412 27.8148 9.16361 27.5821 8.43416 27.5821C7.84365 27.5821 7.32609 27.7488 6.88147 28.0823C6.43686 28.4088 6.0895 28.8951 5.8394 29.5412C5.59625 30.1803 5.47468 30.9723 5.47468 31.9171C5.47468 32.8619 5.59625 33.6608 5.8394 34.3139C6.0895 34.9599 6.43686 35.4497 6.88147 35.7832C7.32609 36.1097 7.84365 36.273 8.43416 36.273C8.90657 36.273 9.3234 36.1722 9.68465 35.9708C10.0528 35.7693 10.355 35.474 10.5913 35.085C10.8275 34.689 10.9768 34.2097 11.0393 33.6469H15.8016C15.753 34.9669 15.423 36.1201 14.8116 37.1066C14.2072 38.0931 13.3562 38.8608 12.2586 39.4096C11.1679 39.9515 9.87222 40.2224 8.37164 40.2224Z" fill="#C848FF"/>
<path d="M95.8984 16.3833V0.377038H100.848V3.29484H101.015C101.307 2.23887 101.783 1.45385 102.443 0.939757C103.103 0.418721 103.87 0.158203 104.746 0.158203C104.982 0.158203 105.225 0.175571 105.475 0.210307C105.725 0.238095 105.958 0.283252 106.173 0.345777V4.77458C105.93 4.69122 105.611 4.62522 105.215 4.57659C104.826 4.52796 104.478 4.50364 104.172 4.50364C103.568 4.50364 103.023 4.63911 102.536 4.91005C102.057 5.17405 101.678 5.54572 101.401 6.02507C101.13 6.49748 100.994 7.05325 100.994 7.69239V16.3833H95.8984Z" fill="white"/>
<path d="M87.5691 9.47425V0.376953H92.6544V16.3832H87.7984V13.4029H87.6317C87.2773 14.3824 86.6729 15.1605 85.8184 15.7371C84.9709 16.3068 83.9462 16.5916 82.7443 16.5916C81.6536 16.5916 80.6949 16.3415 79.8682 15.8413C79.0415 15.3411 78.3989 14.6429 77.9404 13.7467C77.4819 12.8436 77.2491 11.7876 77.2422 10.5788V0.376953H82.3379V9.57845C82.3449 10.4468 82.5741 11.1311 83.0257 11.6313C83.4773 12.1315 84.0921 12.3816 84.8702 12.3816C85.3773 12.3816 85.8323 12.2705 86.2353 12.0482C86.6452 11.8189 86.9682 11.4889 87.2044 11.0582C87.4476 10.6205 87.5691 10.0925 87.5691 9.47425Z" fill="white"/>
<path d="M66.5455 16.6856C64.8643 16.6856 63.4193 16.3417 62.2104 15.6539C61.0086 14.9592 60.0811 13.9935 59.4281 12.7569C58.782 11.5134 58.459 10.0719 58.459 8.43233C58.459 6.78586 58.782 5.34433 59.4281 4.10773C60.0811 2.86419 61.0086 1.89854 62.2104 1.21077C63.4193 0.516058 64.8643 0.168701 66.5455 0.168701C68.2267 0.168701 69.6682 0.516058 70.8701 1.21077C72.0789 1.89854 73.0063 2.86419 73.6524 4.10773C74.3054 5.34433 74.632 6.78586 74.632 8.43233C74.632 10.0719 74.3054 11.5134 73.6524 12.7569C73.0063 13.9935 72.0789 14.9592 70.8701 15.6539C69.6682 16.3417 68.2267 16.6856 66.5455 16.6856ZM66.5767 12.8403C67.1881 12.8403 67.7056 12.6527 68.1294 12.2776C68.5532 11.9024 68.8762 11.3814 69.0985 10.7145C69.3278 10.0475 69.4424 9.27641 69.4424 8.40107C69.4424 7.51184 69.3278 6.73376 69.0985 6.06683C68.8762 5.3999 68.5532 4.87887 68.1294 4.50372C67.7056 4.12858 67.1881 3.941 66.5767 3.941C65.9445 3.941 65.4096 4.12858 64.9719 4.50372C64.5412 4.87887 64.2112 5.3999 63.982 6.06683C63.7597 6.73376 63.6485 7.51184 63.6485 8.40107C63.6485 9.27641 63.7597 10.0475 63.982 10.7145C64.2112 11.3814 64.5412 11.9024 64.9719 12.2776C65.4096 12.6527 65.9445 12.8403 66.5767 12.8403Z" fill="white"/>
<path d="M31.9072 16.3833V0.377115H36.7529V3.31576H36.93C37.2635 2.34316 37.8262 1.5755 38.6182 1.01278C39.4101 0.450061 40.355 0.168701 41.4526 0.168701C42.5642 0.168701 43.5159 0.453534 44.3079 1.0232C45.0999 1.59287 45.6035 2.35705 45.8189 3.31576H45.9856C46.2844 2.364 46.8679 1.60329 47.7363 1.03362C48.6047 0.457008 49.6294 0.168701 50.8104 0.168701C52.3249 0.168701 53.5545 0.655001 54.4994 1.6276C55.4442 2.59326 55.9166 3.92016 55.9166 5.60832V16.3833H50.8208V6.77544C50.8208 5.97652 50.6159 5.36864 50.206 4.95181C49.7961 4.52804 49.2647 4.31615 48.6117 4.31615C47.91 4.31615 47.3577 4.54541 46.9548 5.00392C46.5588 5.45548 46.3608 6.06336 46.3608 6.82754V16.3833H41.463V6.72334C41.463 5.97999 41.2616 5.39296 40.8586 4.96223C40.4557 4.53151 39.9242 4.31615 39.2643 4.31615C38.8196 4.31615 38.4271 4.42383 38.0867 4.63919C37.7463 4.84761 37.4788 5.14633 37.2843 5.53537C37.0967 5.92441 37.003 6.38293 37.003 6.91091V16.3833H31.9072Z" fill="white"/>
<path d="M23.5779 9.47425V0.376953H28.6632V16.3832H23.8072V13.4029H23.6404C23.2861 14.3824 22.6817 15.1605 21.8272 15.7371C20.9797 16.3068 19.955 16.5916 18.7531 16.5916C17.6624 16.5916 16.7037 16.3415 15.877 15.8413C15.0503 15.3411 14.4077 14.6429 13.9492 13.7467C13.4907 12.8436 13.2579 11.7876 13.251 10.5788V0.376953H18.3467V9.57845C18.3537 10.4468 18.5829 11.1311 19.0345 11.6313C19.486 12.1315 20.1009 12.3816 20.8789 12.3816C21.3861 12.3816 21.8411 12.2705 22.2441 12.0482C22.6539 11.8189 22.977 11.4889 23.2132 11.0582C23.4563 10.6205 23.5779 10.0925 23.5779 9.47425Z" fill="white"/>
<path d="M0.900391 16.3833V0.377038H5.85023V3.29484H6.01697C6.30875 2.23887 6.78463 1.45385 7.44461 0.939757C8.10458 0.418721 8.87224 0.158203 9.74759 0.158203C9.98379 0.158203 10.2269 0.175571 10.477 0.210307C10.7271 0.238095 10.9599 0.283252 11.1752 0.345777V4.77458C10.9321 4.69122 10.6125 4.62522 10.2165 4.57659C9.82748 4.52796 9.48012 4.50364 9.17445 4.50364C8.57004 4.50364 8.02469 4.63911 7.53839 4.91005C7.05904 5.17405 6.68042 5.54572 6.40253 6.02507C6.13159 6.49748 5.99613 7.05325 5.99613 7.69239V16.3833H0.900391Z" fill="white"/>
</svg>
