<svg width="48" height="48" viewBox="0 0 48 48" fill="none" xmlns="http://www.w3.org/2000/svg">
<path d="M8.3269 2.17601V2.07448H8.22375V2.17601H8.3269ZM39.108 8.29031H39.0049V8.39184H39.108V8.29031ZM47.861 8.29031L47.9611 8.32017L48 8.18878H47.861V8.29031ZM46.0267 14.4061V14.5076H46.1029L46.1253 14.4345L46.0267 14.4061ZM44.4734 14.4061V14.3046H44.3703V14.4061H44.4734ZM44.4734 39.147H44.3703V39.2485H44.4734V39.147ZM45.8846 42.2034H45.7815V42.3049H45.8846V42.2034ZM47.5799 45.2613V45.3628H47.6816V45.2613H47.5799ZM31.7648 45.2613H31.6616V45.3628H31.7648V45.2613ZM33.4601 42.2034V42.3049H33.5632V42.2034H33.4601ZM34.5753 39.1769L34.5977 39.2754L34.6785 39.259V39.1769H34.5753ZM34.5454 25.5253H34.6486V25.5208L34.6471 25.5164L34.5454 25.5253ZM12.8895 25.5253L12.7863 25.5164V25.5253H12.8895ZM12.8596 39.1649H12.7564L12.755 39.253L12.8432 39.2664L12.8596 39.1649ZM14.5399 42.2034H14.4368V42.3049H14.5399V42.2034ZM16.2337 45.2613V45.3628H16.3369V45.2613H16.2337ZM0.420082 45.2613H0.31693V45.3628H0.420082V45.2613ZM2.11387 42.2034V42.3049H2.21702V42.2034H2.11387ZM3.5266 39.147V39.2485H3.62975V39.147H3.5266ZM3.5266 14.4061H3.62975V14.3046H3.5266V14.4061ZM1.97334 14.4061L1.87467 14.4345L1.8956 14.5076H1.97334V14.4061ZM0.137536 8.29031V8.19027H0L0.0388688 8.32017L0.137536 8.29031ZM8.3269 8.29031V8.39184H8.43005V8.29031H8.3269ZM47.861 8.18878H39.108V8.39184H47.861V8.18878ZM46.1253 14.4345L47.9611 8.32017L47.7623 8.26194L45.9265 14.3777L46.1253 14.4345ZM44.4734 14.5076H46.0267V14.3046H44.4734V14.5076ZM44.5766 39.147V14.4061H44.3703V39.147H44.5766ZM45.9878 40.5356C45.9878 39.7129 45.3091 39.0455 44.4734 39.0455V39.2485C45.1955 39.2485 45.7815 39.8249 45.7815 40.5356H45.9878ZM45.9878 42.2034V40.5356H45.7815V42.2034H45.9878ZM46.1672 42.1034H45.8846V42.3049H46.1672V42.1034ZM47.6816 43.5935C47.6816 42.7708 47.0044 42.1034 46.1672 42.1034V42.3049C46.8907 42.3049 47.4768 42.8828 47.4768 43.5935H47.6816ZM47.6816 45.2613V43.5935H47.4768V45.2613H47.6816ZM39.108 45.3628H47.5799V45.1598H39.108V45.3628ZM34.5888 45.3628H39.108V45.1598H34.5888V45.3628ZM31.7648 45.3628H34.5888V45.1598H31.7648V45.3628ZM31.6616 43.5935V45.2613H31.8679V43.5935H31.6616ZM33.1775 42.1034C32.3404 42.1034 31.6616 42.7708 31.6616 43.5935H31.8679C31.8679 42.8828 32.454 42.3049 33.1775 42.3049V42.1034ZM33.4601 42.1034H33.1775V42.3049H33.4601V42.1034ZM33.3569 40.5356V42.2034H33.5632V40.5356H33.3569ZM34.5544 39.0783C33.8697 39.2217 33.3569 39.8204 33.3569 40.5356H33.5632C33.5632 39.9174 34.0057 39.4008 34.5977 39.2754L34.5544 39.0783ZM34.4423 25.5253L34.4722 39.1769H34.6785L34.6486 25.5253H34.4423ZM23.7175 15.8977C29.334 15.8977 33.9474 20.1322 34.4423 25.5343L34.6471 25.5164C34.1433 20.0098 29.4431 15.6947 23.7175 15.6947V15.8977ZM12.9927 25.5343C13.4875 20.1322 18.0994 15.8977 23.7175 15.8977V15.6947C17.9918 15.6947 13.2916 20.0098 12.7863 25.5164L12.9927 25.5343ZM12.9628 39.1649L12.9927 25.5253H12.7863L12.7564 39.1649H12.9628ZM14.6431 40.5356C14.6431 40.1459 14.3815 39.804 14.0436 39.5531C13.7043 39.2993 13.2677 39.1231 12.8745 39.0649L12.8432 39.2664C13.2034 39.3202 13.6071 39.4814 13.9195 39.7144C14.235 39.9488 14.4368 40.237 14.4368 40.5356H14.6431ZM14.6431 42.2034V40.5356H14.4368V42.2034H14.6431ZM14.8225 42.1034H14.5399V42.3049H14.8225V42.1034ZM16.3369 43.5935C16.3369 42.7708 15.6582 42.1034 14.8225 42.1034V42.3049C15.5445 42.3049 16.1306 42.8828 16.1306 43.5935H16.3369ZM16.3369 45.2613V43.5935H16.1306V45.2613H16.3369ZM12.8447 45.3628H16.2337V45.1598H12.8447V45.3628ZM12.6099 45.3628H12.8447V45.1598H12.6099V45.3628ZM8.3269 45.3628H12.6099V45.1598H8.3269V45.3628ZM0.420082 45.3628H8.3269V45.1598H0.420082V45.3628ZM0.31693 43.5935V45.2613H0.523234V43.5935H0.31693ZM1.83132 42.1034C0.99564 42.1034 0.31693 42.7708 0.31693 43.5935H0.523234C0.523234 42.8828 1.10926 42.3049 1.83132 42.3049V42.1034ZM2.11387 42.1034H1.83132V42.3049H2.11387V42.1034ZM2.01071 40.5356V42.2034H2.21702V40.5356H2.01071ZM3.5266 39.0455C2.68942 39.0455 2.01071 39.7129 2.01071 40.5356H2.21702C2.21702 39.8249 2.80304 39.2485 3.5266 39.2485V39.0455ZM3.42345 14.4061V39.147H3.62975V14.4061H3.42345ZM1.97334 14.5076H3.5266V14.3046H1.97334V14.5076ZM0.0388688 8.32017L1.87467 14.4345L2.07201 14.3777L0.236203 8.26194L0.0388688 8.32017ZM8.22375 2.17601V8.29031H8.43005V2.17601H8.22375Z" fill="white"/>
<path d="M8.18629 2.07448H38.9558V8.2176H47.7055L45.8719 14.3622H44.3192V39.2197C45.0978 39.2197 45.7299 39.8438 45.7299 40.6148V42.2905H46.0124C46.7924 42.2905 47.4246 42.9161 47.4246 43.6872V45.3628H31.6154V43.6872C31.6154 42.9161 32.2475 42.2905 33.0276 42.2905H33.31V40.6148C33.31 39.9443 33.7882 39.3847 34.4249 39.2497L34.395 25.5338C33.8958 20.0538 29.2408 15.7589 23.5711 15.7589C17.9013 15.7589 13.2463 20.0538 12.7472 25.5338L12.7173 39.2377C13.4705 39.3487 14.397 39.9233 14.397 40.6148V42.2905H14.6794C15.458 42.2905 16.0901 42.9161 16.0901 43.6872V45.3628H0.28244V43.6872C0.28244 42.9161 0.914569 42.2905 1.69315 42.2905H1.97559V40.6148C1.97559 39.8438 2.60772 39.2197 3.38779 39.2197V14.3622H1.83512L0 8.2176H8.18629V2.07448Z" fill="white"/>
</svg>
